# xmcd
# Track frame offsets:
# 150
# 16850
# 29837
# 44165
# 57120
# 72292
# 88437
# 106355
# 121915
# 133162
#
# Disc length: 1954 seconds
# Revision: 0
# Processed by: cddbd v1.5.2PL0 Copyright (c) Steve Scherf et al.
# Submitted via: VisiTrax 2.11.2.271 - For more info visit www.synapsa.com
#
DISCID=9407a00a
DTITLE=Various Artist - Mark Collie and David Lee Murphy
DYEAR=1900
DGENRE=
TTITLE0=Mark Collie - Even The Man In The Moon Is Crying
TTITLE1=Mark Collie - She's Never Comin Back
TTITLE2=Mark Collie - Born To Love You
TTITLE3=Mark Collie - Let Her Go
TTITLE4=Mark Collie - Hard Lovin Woman
TTITLE5=David Lee Murphy - Party Crowd
TTITLE6=David Lee Murphy - Dust On The Bottle
TTITLE7=David Lee Murphy - Everytime I Get Around You
TTITLE8=David Lee Murphy - Out With A Bang
TTITLE9=David Lee Murphy - Just Once
EXTD=
EXTT0=
EXTT1=
EXTT2=
EXTT3=
EXTT4=
EXTT5=
EXTT6=
EXTT7=
EXTT8=
EXTT9=
PLAYORDER=
